{"accessors":[{"bufferView":0,"byteOffset":0,"componentType":5126,"count":134,"max":[0.186539992690086,0.0867939963936806,1.0181599855423],"min":[-0.186539992690086,-0.103977002203465,-1.0181599855423],"normalized":false,"type":"VEC3"},{"bufferView":1,"byteOffset":0,"componentType":5126,"count":134,"max":[1.0,1.0,0.831376016139984,1.0],"min":[-1.0,-1.0,-0.831374764442444,-1.0],"normalized":false,"type":"VEC4"},{"bufferView":2,"byteOffset":0,"componentType":5126,"count":134,"max":[1.0,1.0,1.0],"min":[-1.0,-1.0,-1.0],"normalized":false,"type":"VEC3"},{"bufferView":3,"byteOffset":0,"componentType":5126,"count":134,"max":[0.957671463489532,1.0],"min":[0.0,0.0],"normalized":false,"type":"VEC2"},{"bufferView":4,"byteOffset":0,"componentType":5123,"count":228,"max":[133.0],"min":[0.0],"normalized":false,"type":"SCALAR"}],"asset":{"generator":"Godot Engine v4.4.1.stable.arch_linux@unknown","version":"2.0"},"bufferViews":[{"buffer":0,"byteLength":1608,"byteOffset":0,"byteStride":12,"target":34962},{"buffer":0,"byteLength":2144,"byteOffset":1608,"byteStride":16,"target":34962},{"buffer":0,"byteLength":1608,"byteOffset":3752,"byteStride":12,"target":34962},{"buffer":0,"byteLength":1072,"byteOffset":5360,"byteStride":8,"target":34962},{"buffer":0,"byteLength":456,"byteOffset":6432,"target":34963}],"buffers":[{"byteLength":6888,"uri":"ceiling_light0.bin"}],"extensionsUsed":["GODOT_single_root","KHR_materials_emissive_strength"],"images":[{"uri":"textures%2Flight_albedo000.png"},{"uri":"textures%2Flight_emission000.png"}],"materials":[{"doubleSided":true,"emissiveFactor":[0.0,0.0,0.0],"emissiveTexture":{"index":1},"extensions":{"KHR_materials_emissive_strength":{"emissiveStrength":7.40000009536743}},"name":"light","pbrMetallicRoughness":{"baseColorFactor":[1.0,1.0,1.0,1.0],"baseColorTexture":{"index":0},"metallicFactor":0.0,"roughnessFactor":1.0}}],"meshes":[{"extras":{"targetNames":[]},"primitives":[{"attributes":{"NORMAL":2,"POSITION":0,"TANGENT":1,"TEXCOORD_0":3},"indices":4,"material":0,"mode":4}]}],"nodes":[{"mesh":0,"name":"CeilingLight","rotation":[0.0,0.70710676908493,0.0,0.70710676908493]}],"samplers":[{"magFilter":9728,"minFilter":9986,"wrapS":10497,"wrapT":10497}],"scene":0,"scenes":[{"nodes":[0]}],"textures":[{"sampler":0,"source":0},{"sampler":0,"source":1}]}